<svg width="19" height="9" viewBox="0 0 19 9" fill="none" xmlns="http://www.w3.org/2000/svg">
<path d="M0.966604 4.305C0.966604 3.68167 1.0616 3.13333 1.2516 2.66C1.4416 2.18333 1.70494 1.785 2.0416 1.465C2.37827 1.14167 2.7666 0.898333 3.2066 0.735C3.64994 0.571666 4.12327 0.49 4.6266 0.49C4.98327 0.49 5.2816 0.509999 5.5216 0.549999C5.76494 0.586666 5.96827 0.628333 6.1316 0.675C6.29827 0.718333 6.4466 0.753333 6.5766 0.779999L6.3666 2.14C6.30327 2.1 6.2066 2.04833 6.0766 1.985C5.94994 1.91833 5.7766 1.86 5.5566 1.81C5.33994 1.75667 5.06827 1.73 4.7416 1.73C4.31827 1.73 3.94327 1.82833 3.6166 2.025C3.28994 2.22167 3.03327 2.505 2.8466 2.875C2.65994 3.245 2.5666 3.69167 2.5666 4.215C2.5666 4.73833 2.6516 5.19833 2.8216 5.595C2.99494 5.99167 3.24827 6.30333 3.5816 6.53C3.91494 6.75333 4.3216 6.865 4.8016 6.865C5.02494 6.865 5.2516 6.84 5.4816 6.79C5.7116 6.74 5.9166 6.68 6.0966 6.61C6.2766 6.53667 6.40994 6.465 6.4966 6.395V7.69C6.36327 7.74333 6.20994 7.8 6.0366 7.86C5.86327 7.92 5.66327 7.97167 5.4366 8.015C5.21327 8.05833 4.95327 8.08 4.6566 8.08C3.88327 8.08 3.2216 7.925 2.6716 7.615C2.1216 7.30167 1.69994 6.86167 1.4066 6.295C1.11327 5.72833 0.966604 5.065 0.966604 4.305ZM9.79239 8.08C9.44905 8.08 9.12405 8.055 8.81739 8.005C8.51072 7.955 8.24572 7.895 8.02239 7.825C7.79905 7.755 7.64072 7.69167 7.54738 7.635L7.78238 6.395C7.90572 6.46833 8.06738 6.54167 8.26739 6.615C8.47072 6.685 8.69405 6.745 8.93739 6.795C9.18072 6.84167 9.42572 6.865 9.67239 6.865C10.0691 6.865 10.3641 6.80333 10.5574 6.68C10.7507 6.55667 10.8474 6.35833 10.8474 6.085C10.8474 5.89167 10.7941 5.73 10.6874 5.6C10.5807 5.46667 10.4124 5.33667 10.1824 5.21C9.95572 5.08333 9.66072 4.93333 9.29739 4.76C8.98739 4.61 8.69572 4.43167 8.42238 4.225C8.14905 4.01833 7.92739 3.77167 7.75739 3.485C7.58738 3.19833 7.50238 2.86333 7.50238 2.48C7.50238 2.13333 7.56905 1.835 7.70238 1.585C7.83905 1.33167 8.02572 1.125 8.26239 0.965C8.49905 0.801666 8.77239 0.681666 9.08239 0.605C9.39572 0.528333 9.73072 0.49 10.0874 0.49C10.6007 0.49 11.0224 0.538333 11.3524 0.635C11.6824 0.731666 11.9124 0.821666 12.0424 0.905L11.7774 2.095C11.6207 1.98167 11.4041 1.88 11.1274 1.79C10.8507 1.69667 10.5341 1.65 10.1774 1.65C9.94072 1.65 9.73405 1.67833 9.55739 1.735C9.38405 1.79167 9.24905 1.875 9.15239 1.985C9.05572 2.09167 9.00739 2.22333 9.00739 2.38C9.00739 2.56667 9.05239 2.72667 9.14239 2.86C9.23572 2.99 9.38239 3.11667 9.58239 3.24C9.78239 3.36 10.0424 3.49833 10.3624 3.655C10.6524 3.79167 10.9207 3.935 11.1674 4.085C11.4141 4.23167 11.6307 4.39333 11.8174 4.57C12.0041 4.74667 12.1491 4.94833 12.2524 5.175C12.3557 5.40167 12.4074 5.66167 12.4074 5.955C12.4074 6.40167 12.3024 6.785 12.0924 7.105C11.8824 7.42167 11.5807 7.66333 11.1874 7.83C10.7974 7.99667 10.3324 8.08 9.79239 8.08ZM15.642 8.08C15.2987 8.08 14.9737 8.055 14.667 8.005C14.3603 7.955 14.0953 7.895 13.872 7.825C13.6487 7.755 13.4903 7.69167 13.397 7.635L13.632 6.395C13.7553 6.46833 13.917 6.54167 14.117 6.615C14.3203 6.685 14.5437 6.745 14.787 6.795C15.0303 6.84167 15.2753 6.865 15.522 6.865C15.9187 6.865 16.2137 6.80333 16.407 6.68C16.6003 6.55667 16.697 6.35833 16.697 6.085C16.697 5.89167 16.6437 5.73 16.537 5.6C16.4303 5.46667 16.262 5.33667 16.032 5.21C15.8053 5.08333 15.5103 4.93333 15.147 4.76C14.837 4.61 14.5453 4.43167 14.272 4.225C13.9987 4.01833 13.777 3.77167 13.607 3.485C13.437 3.19833 13.352 2.86333 13.352 2.48C13.352 2.13333 13.4187 1.835 13.552 1.585C13.6887 1.33167 13.8753 1.125 14.112 0.965C14.3487 0.801666 14.622 0.681666 14.932 0.605C15.2453 0.528333 15.5803 0.49 15.937 0.49C16.4503 0.49 16.872 0.538333 17.202 0.635C17.532 0.731666 17.762 0.821666 17.892 0.905L17.627 2.095C17.4703 1.98167 17.2537 1.88 16.977 1.79C16.7003 1.69667 16.3837 1.65 16.027 1.65C15.7903 1.65 15.5837 1.67833 15.407 1.735C15.2337 1.79167 15.0987 1.875 15.002 1.985C14.9053 2.09167 14.857 2.22333 14.857 2.38C14.857 2.56667 14.902 2.72667 14.992 2.86C15.0853 2.99 15.232 3.11667 15.432 3.24C15.632 3.36 15.892 3.49833 16.212 3.655C16.502 3.79167 16.7703 3.935 17.017 4.085C17.2637 4.23167 17.4803 4.39333 17.667 4.57C17.8537 4.74667 17.9987 4.94833 18.102 5.175C18.2053 5.40167 18.257 5.66167 18.257 5.955C18.257 6.40167 18.152 6.785 17.942 7.105C17.732 7.42167 17.4303 7.66333 17.037 7.83C16.647 7.99667 16.182 8.08 15.642 8.08Z" fill="white"/>
</svg>
