<svg width="32" height="8" viewBox="0 0 32 8" fill="none" xmlns="http://www.w3.org/2000/svg">
<path d="M0.348664 8V0.57H4.88366V1.75H1.90866V3.615H4.16366V4.77H1.90866V6.795H5.19866V8H0.348664ZM6.40335 8V0.57H7.95335V6.745H10.6384V8H6.40335ZM11.8747 8V0.57H13.4547V8H11.8747ZM14.5512 8L16.9412 3.945L16.9512 4.435L14.5912 0.57L16.3012 0.56L17.3962 2.475L17.9512 3.46H17.6662L18.2062 2.475L19.2462 0.57H20.8762L18.5362 4.52L18.4912 4.055L20.9362 8H19.2112L18.0662 5.98L17.4962 4.935L17.8562 4.925L17.3062 5.98L16.1862 8H14.5512ZM22.0114 8V0.57H23.5914V8H22.0114ZM26.943 8H25.378V0.57C25.4446 0.57 25.5096 0.57 25.573 0.57C25.6396 0.57 25.7046 0.57 25.768 0.57C25.8346 0.57 25.9013 0.57 25.968 0.57C26.2213 0.57 26.5163 0.556666 26.853 0.53C27.1896 0.503333 27.593 0.49 28.063 0.49C28.4096 0.49 28.743 0.528333 29.063 0.605C29.383 0.678333 29.668 0.801666 29.918 0.975C30.1713 1.145 30.3713 1.375 30.518 1.665C30.6646 1.955 30.738 2.315 30.738 2.745C30.738 3.22833 30.658 3.63 30.498 3.95C30.338 4.26667 30.113 4.515 29.823 4.695C29.5363 4.87167 29.1996 4.99 28.813 5.05C28.6796 5.07 28.5446 5.09 28.408 5.11C28.2713 5.12667 28.0913 5.14167 27.868 5.155C27.6446 5.165 27.3363 5.17 26.943 5.17V8ZM26.943 4.07C27.013 4.08 27.1113 4.08833 27.238 4.095C27.3646 4.10167 27.493 4.105 27.623 4.105C27.7563 4.105 27.863 4.105 27.943 4.105C28.3663 4.105 28.683 3.98667 28.893 3.75C29.1063 3.51 29.213 3.18833 29.213 2.785C29.213 2.55833 29.173 2.35667 29.093 2.18C29.0163 2 28.8796 1.86 28.683 1.76C28.4863 1.65667 28.2113 1.605 27.858 1.605C27.7013 1.605 27.543 1.61333 27.383 1.63C27.223 1.64333 27.0763 1.665 26.943 1.695V4.07ZM29.513 8C29.4696 7.94333 29.4313 7.88 29.398 7.81C29.368 7.73667 29.3163 7.62 29.243 7.46C29.1396 7.23667 29.043 6.995 28.953 6.735C28.8663 6.475 28.7746 6.22667 28.678 5.99C28.5813 5.75333 28.4696 5.55667 28.343 5.4C28.2163 5.24333 28.063 5.15833 27.883 5.145L28.323 4.8L29.298 4.735C29.488 4.81833 29.6546 4.96167 29.798 5.165C29.9446 5.365 30.078 5.59667 30.198 5.86C30.3213 6.12333 30.4413 6.395 30.558 6.675C30.678 6.955 30.8063 7.215 30.943 7.455C30.993 7.54833 31.043 7.64 31.093 7.73C31.1463 7.82 31.198 7.91 31.248 8H29.513Z" fill="white"/>
</svg>
