<svg width="17" height="9" viewBox="0 0 17 9" fill="none" xmlns="http://www.w3.org/2000/svg">
<path d="M0.581955 4.32C0.581955 3.65333 0.676955 3.07833 0.866955 2.595C1.05696 2.11167 1.32029 1.715 1.65696 1.405C1.99362 1.09167 2.38529 0.861666 2.83196 0.715C3.27862 0.565 3.75862 0.49 4.27196 0.49C4.64196 0.49 4.94529 0.506666 5.18196 0.539999C5.41862 0.573333 5.62862 0.613333 5.81196 0.66C5.99529 0.703333 6.18862 0.743333 6.39196 0.779999L6.34196 2.12C6.12862 2.01 5.86362 1.915 5.54696 1.835C5.23029 1.755 4.81362 1.715 4.29696 1.715C3.86362 1.715 3.48862 1.81333 3.17196 2.01C2.85862 2.20667 2.61529 2.49 2.44196 2.86C2.26862 3.22667 2.18196 3.67 2.18196 4.19C2.18196 4.70333 2.25362 5.165 2.39696 5.575C2.54029 5.985 2.75529 6.31 3.04196 6.55C3.32862 6.78667 3.68529 6.905 4.11196 6.905C4.37862 6.905 4.61862 6.88833 4.83196 6.855C5.04529 6.81833 5.21696 6.76833 5.34696 6.705V4.995L5.57196 5.21L4.17696 5.13V4H6.79696V7.565C6.67029 7.56833 6.53362 7.59667 6.38696 7.65C6.24362 7.70333 6.07529 7.76333 5.88196 7.83C5.68862 7.89667 5.45196 7.955 5.17196 8.005C4.89196 8.055 4.54862 8.08 4.14196 8.08C3.40529 8.08 2.77029 7.92667 2.23696 7.62C1.70696 7.31 1.29862 6.87333 1.01196 6.31C0.725289 5.74333 0.581955 5.08 0.581955 4.32ZM8.30852 8V0.57H9.88852V8H8.30852ZM13.1551 8V1.77H11.0401V0.57H16.8451V1.77H14.7301V8H13.1551Z" fill="white"/>
</svg>
