<svg width="39" height="9" viewBox="0 0 39 9" fill="none" xmlns="http://www.w3.org/2000/svg">
<path d="M0.486985 4.32C0.486985 3.65333 0.581985 3.07833 0.771985 2.595C0.961985 2.11167 1.22532 1.715 1.56198 1.405C1.89865 1.09167 2.29032 0.861666 2.73698 0.715C3.18365 0.565 3.66365 0.49 4.17698 0.49C4.54698 0.49 4.85032 0.506666 5.08698 0.539999C5.32365 0.573333 5.53365 0.613333 5.71699 0.66C5.90032 0.703333 6.09365 0.743333 6.29698 0.779999L6.24698 2.12C6.03365 2.01 5.76865 1.915 5.45198 1.835C5.13532 1.755 4.71865 1.715 4.20198 1.715C3.76865 1.715 3.39365 1.81333 3.07698 2.01C2.76365 2.20667 2.52032 2.49 2.34698 2.86C2.17365 3.22667 2.08698 3.67 2.08698 4.19C2.08698 4.70333 2.15865 5.165 2.30198 5.575C2.44532 5.985 2.66032 6.31 2.94698 6.55C3.23365 6.78667 3.59032 6.905 4.01698 6.905C4.28365 6.905 4.52365 6.88833 4.73698 6.855C4.95032 6.81833 5.12198 6.76833 5.25198 6.705V4.995L5.47698 5.21L4.08198 5.13V4H6.70198V7.565C6.57532 7.56833 6.43865 7.59667 6.29198 7.65C6.14865 7.70333 5.98032 7.76333 5.78698 7.83C5.59365 7.89667 5.35698 7.955 5.07699 8.005C4.79698 8.055 4.45365 8.08 4.04698 8.08C3.31032 8.08 2.67532 7.92667 2.14198 7.62C1.61198 7.31 1.20365 6.87333 0.916985 6.31C0.630318 5.74333 0.486985 5.08 0.486985 4.32ZM8.21355 8V0.57H9.79355V8H8.21355ZM13.0601 8V1.77H10.9451V0.57H16.7501V1.77H14.6351V8H13.0601ZM17.7813 8V0.57H19.3513V3.675H22.2663V0.57H23.8263V8H22.2663V4.825H19.3513V8H17.7813ZM28.3911 8.08C27.6578 8.08 27.0695 7.95 26.6261 7.69C26.1828 7.42667 25.8611 7.05667 25.6611 6.58C25.4645 6.1 25.3661 5.535 25.3661 4.885L25.3811 0.57H26.9411L26.9211 4.66C26.9211 5.24333 26.9761 5.69333 27.0861 6.01C27.1995 6.32333 27.3645 6.54167 27.5811 6.665C27.8011 6.785 28.0695 6.845 28.3861 6.845C28.6895 6.845 28.9461 6.78333 29.1561 6.66C29.3661 6.53333 29.5245 6.31167 29.6311 5.995C29.7411 5.67833 29.7961 5.23333 29.7961 4.66V0.57H31.3411V4.91C31.3411 5.91333 31.1028 6.69333 30.6261 7.25C30.1495 7.80333 29.4045 8.08 28.3911 8.08ZM32.9289 8V0.56L33.6839 0.57C33.8506 0.57 34.0206 0.565 34.1939 0.555C34.3673 0.541666 34.5539 0.53 34.7539 0.52C34.9539 0.506666 35.1789 0.499999 35.4289 0.499999C36.0656 0.499999 36.5823 0.576666 36.9789 0.729999C37.3789 0.88 37.6706 1.09333 37.8539 1.37C38.0373 1.64667 38.1289 1.97333 38.1289 2.35C38.1289 2.6 38.0873 2.84167 38.0039 3.075C37.9239 3.305 37.8006 3.505 37.6339 3.675C37.4673 3.845 37.2573 3.965 37.0039 4.035C37.2973 4.065 37.5606 4.15833 37.7939 4.315C38.0273 4.46833 38.2123 4.67 38.3489 4.92C38.4856 5.16667 38.5539 5.445 38.5539 5.755C38.5539 6.20833 38.4623 6.60833 38.2789 6.955C38.0989 7.30167 37.7873 7.575 37.3439 7.775C36.9039 7.97167 36.2906 8.07 35.5039 8.07C35.1839 8.07 34.8539 8.06 34.5139 8.04C34.1773 8.02333 33.9106 8.01 33.7139 8H32.9289ZM34.4839 3.655C34.5439 3.665 34.6156 3.67333 34.6989 3.68C34.7823 3.68333 34.8689 3.68667 34.9589 3.69C35.0523 3.69 35.1389 3.69 35.2189 3.69C35.3023 3.69 35.3756 3.69 35.4389 3.69C35.8123 3.69 36.1023 3.59833 36.3089 3.415C36.5189 3.23167 36.6239 2.93167 36.6239 2.515C36.6239 2.175 36.5039 1.93167 36.2639 1.785C36.0273 1.63833 35.6839 1.565 35.2339 1.565C35.1839 1.565 35.1056 1.56833 34.9989 1.575C34.8923 1.57833 34.7889 1.585 34.6889 1.595C34.5889 1.60167 34.5206 1.61333 34.4839 1.63V3.655ZM34.4839 6.9C34.5306 6.93 34.6139 6.95333 34.7339 6.97C34.8573 6.98667 34.9889 6.99833 35.1289 7.005C35.2689 7.01167 35.3939 7.015 35.5039 7.015C35.9773 7.015 36.3389 6.925 36.5889 6.745C36.8389 6.56167 36.9639 6.25167 36.9639 5.815C36.9639 5.43833 36.8456 5.15833 36.6089 4.975C36.3756 4.79167 36.0006 4.7 35.4839 4.7C35.4106 4.7 35.3256 4.7 35.2289 4.7C35.1356 4.7 35.0389 4.70167 34.9389 4.705C34.8423 4.70833 34.7539 4.71167 34.6739 4.715C34.5939 4.71833 34.5306 4.725 34.4839 4.735V6.9Z" fill="white"/>
</svg>
