<svg width="29" height="9" viewBox="0 0 29 9" fill="none" xmlns="http://www.w3.org/2000/svg">
<path d="M0.827058 8V0.57H2.39706V3.675H5.31206V0.57H6.87206V8H5.31206V4.825H2.39706V8H0.827058ZM10.0219 8V1.77H7.9069V0.57H13.7119V1.77H11.5969V8H10.0219ZM14.3581 8L15.1781 0.57H17.3181L18.3931 4.54L18.7531 6.215L19.0531 4.54L20.0481 0.57H22.1081L23.0181 8H21.4931L21.1281 3.835L21.0081 1.73L20.5231 3.87L19.3231 8.055H18.0831L16.8031 3.87L16.2931 1.73L16.1531 3.835L15.8231 8H14.3581ZM24.3036 8V0.57H25.8536V6.745H28.5386V8H24.3036Z" fill="white"/>
</svg>
