<svg width="60" height="10" viewBox="0 0 60 10" fill="none" xmlns="http://www.w3.org/2000/svg">
<path d="M1.22856 9.62L0.853557 8.825C1.10022 8.72833 1.34356 8.58167 1.58356 8.385C1.82356 8.19167 1.99522 7.90833 2.09856 7.535C2.17522 7.26167 2.22022 6.92167 2.23356 6.515C2.25022 6.10833 2.25856 5.61333 2.25856 5.03V0.57H3.82856V5.01C3.82856 5.49333 3.83022 5.95 3.83356 6.38C3.84022 6.81 3.80856 7.20167 3.73856 7.555C3.67522 7.89833 3.54856 8.19833 3.35856 8.455C3.17189 8.71167 2.95189 8.925 2.69856 9.095C2.44856 9.265 2.19356 9.39333 1.93356 9.48C1.67356 9.56667 1.43856 9.61333 1.22856 9.62ZM6.41332 8H4.76832L7.45832 0.505H9.14832L11.8333 8H10.1633L8.51832 2.74L8.28832 1.88L8.05332 2.74L6.41332 8ZM6.29332 6.425L6.49832 5.31H9.90832L10.1133 6.425H6.29332ZM14.1054 8.035L11.3704 0.57H13.0354L14.4404 4.785L14.8004 6.13L15.1604 4.785L16.4904 0.57H18.1454L15.4504 8.035H14.1054ZM19.3332 8H17.6882L20.3782 0.505H22.0682L24.7532 8H23.0832L21.4382 2.74L21.2082 1.88L20.9732 2.74L19.3332 8ZM19.2132 6.425L19.4182 5.31H22.8282L23.0332 6.425H19.2132ZM27.5697 8.08C27.2264 8.08 26.9014 8.055 26.5947 8.005C26.2881 7.955 26.0231 7.895 25.7997 7.825C25.5764 7.755 25.4181 7.69167 25.3247 7.635L25.5597 6.395C25.6831 6.46833 25.8447 6.54167 26.0447 6.615C26.2481 6.685 26.4714 6.745 26.7147 6.795C26.9581 6.84167 27.2031 6.865 27.4497 6.865C27.8464 6.865 28.1414 6.80333 28.3347 6.68C28.5281 6.55667 28.6247 6.35833 28.6247 6.085C28.6247 5.89167 28.5714 5.73 28.4647 5.6C28.3581 5.46667 28.1897 5.33667 27.9597 5.21C27.7331 5.08333 27.4381 4.93333 27.0747 4.76C26.7647 4.61 26.4731 4.43167 26.1997 4.225C25.9264 4.01833 25.7047 3.77167 25.5347 3.485C25.3647 3.19833 25.2797 2.86333 25.2797 2.48C25.2797 2.13333 25.3464 1.835 25.4797 1.585C25.6164 1.33167 25.8031 1.125 26.0397 0.965C26.2764 0.801666 26.5497 0.681666 26.8597 0.605C27.1731 0.528333 27.5081 0.49 27.8647 0.49C28.3781 0.49 28.7997 0.538333 29.1297 0.635C29.4597 0.731666 29.6897 0.821666 29.8197 0.905L29.5547 2.095C29.3981 1.98167 29.1814 1.88 28.9047 1.79C28.6281 1.69667 28.3114 1.65 27.9547 1.65C27.7181 1.65 27.5114 1.67833 27.3347 1.735C27.1614 1.79167 27.0264 1.875 26.9297 1.985C26.8331 2.09167 26.7847 2.22333 26.7847 2.38C26.7847 2.56667 26.8297 2.72667 26.9197 2.86C27.0131 2.99 27.1597 3.11667 27.3597 3.24C27.5597 3.36 27.8197 3.49833 28.1397 3.655C28.4297 3.79167 28.6981 3.935 28.9447 4.085C29.1914 4.23167 29.4081 4.39333 29.5947 4.57C29.7814 4.74667 29.9264 4.94833 30.0297 5.175C30.1331 5.40167 30.1847 5.66167 30.1847 5.955C30.1847 6.40167 30.0797 6.785 29.8697 7.105C29.6597 7.42167 29.3581 7.66333 28.9647 7.83C28.5747 7.99667 28.1097 8.08 27.5697 8.08ZM31.0193 4.305C31.0193 3.68167 31.1143 3.13333 31.3043 2.66C31.4943 2.18333 31.7577 1.785 32.0943 1.465C32.431 1.14167 32.8193 0.898333 33.2593 0.735C33.7027 0.571666 34.176 0.49 34.6793 0.49C35.036 0.49 35.3343 0.509999 35.5743 0.549999C35.8177 0.586666 36.021 0.628333 36.1843 0.675C36.351 0.718333 36.4993 0.753333 36.6293 0.779999L36.4193 2.14C36.356 2.1 36.2593 2.04833 36.1293 1.985C36.0027 1.91833 35.8293 1.86 35.6093 1.81C35.3927 1.75667 35.121 1.73 34.7943 1.73C34.371 1.73 33.996 1.82833 33.6693 2.025C33.3427 2.22167 33.086 2.505 32.8993 2.875C32.7127 3.245 32.6193 3.69167 32.6193 4.215C32.6193 4.73833 32.7043 5.19833 32.8743 5.595C33.0477 5.99167 33.301 6.30333 33.6343 6.53C33.9677 6.75333 34.3743 6.865 34.8543 6.865C35.0777 6.865 35.3043 6.84 35.5343 6.79C35.7643 6.74 35.9693 6.68 36.1493 6.61C36.3293 6.53667 36.4627 6.465 36.5493 6.395V7.69C36.416 7.74333 36.2627 7.8 36.0893 7.86C35.916 7.92 35.716 7.97167 35.4893 8.015C35.266 8.05833 35.006 8.08 34.7093 8.08C33.936 8.08 33.2743 7.925 32.7243 7.615C32.1743 7.30167 31.7527 6.86167 31.4593 6.295C31.166 5.72833 31.0193 5.065 31.0193 4.305ZM39.4051 8H37.8401V0.57C37.9068 0.57 37.9718 0.57 38.0351 0.57C38.1018 0.57 38.1668 0.57 38.2301 0.57C38.2968 0.57 38.3635 0.57 38.4301 0.57C38.6835 0.57 38.9785 0.556666 39.3151 0.53C39.6518 0.503333 40.0551 0.49 40.5251 0.49C40.8718 0.49 41.2051 0.528333 41.5251 0.605C41.8451 0.678333 42.1301 0.801666 42.3801 0.975C42.6335 1.145 42.8335 1.375 42.9801 1.665C43.1268 1.955 43.2001 2.315 43.2001 2.745C43.2001 3.22833 43.1201 3.63 42.9601 3.95C42.8001 4.26667 42.5751 4.515 42.2851 4.695C41.9985 4.87167 41.6618 4.99 41.2751 5.05C41.1418 5.07 41.0068 5.09 40.8701 5.11C40.7335 5.12667 40.5535 5.14167 40.3301 5.155C40.1068 5.165 39.7985 5.17 39.4051 5.17V8ZM39.4051 4.07C39.4751 4.08 39.5735 4.08833 39.7001 4.095C39.8268 4.10167 39.9551 4.105 40.0851 4.105C40.2185 4.105 40.3251 4.105 40.4051 4.105C40.8285 4.105 41.1451 3.98667 41.3551 3.75C41.5685 3.51 41.6751 3.18833 41.6751 2.785C41.6751 2.55833 41.6351 2.35667 41.5551 2.18C41.4785 2 41.3418 1.86 41.1451 1.76C40.9485 1.65667 40.6735 1.605 40.3201 1.605C40.1635 1.605 40.0051 1.61333 39.8451 1.63C39.6851 1.64333 39.5385 1.665 39.4051 1.695V4.07ZM41.9751 8C41.9318 7.94333 41.8935 7.88 41.8601 7.81C41.8301 7.73667 41.7785 7.62 41.7051 7.46C41.6018 7.23667 41.5051 6.995 41.4151 6.735C41.3285 6.475 41.2368 6.22667 41.1401 5.99C41.0435 5.75333 40.9318 5.55667 40.8051 5.4C40.6785 5.24333 40.5251 5.15833 40.3451 5.145L40.7851 4.8L41.7601 4.735C41.9501 4.81833 42.1168 4.96167 42.2601 5.165C42.4068 5.365 42.5401 5.59667 42.6601 5.86C42.7835 6.12333 42.9035 6.395 43.0201 6.675C43.1401 6.955 43.2685 7.215 43.4051 7.455C43.4551 7.54833 43.5051 7.64 43.5551 7.73C43.6085 7.82 43.6601 7.91 43.7101 8H41.9751ZM44.8935 8V0.57H46.4735V8H44.8935ZM48.26 8V0.57H48.895C49.2217 0.57 49.5467 0.556666 49.87 0.53C50.1934 0.503333 50.5317 0.49 50.885 0.49C51.4584 0.49 51.95 0.575 52.36 0.745C52.77 0.911666 53.085 1.18167 53.305 1.555C53.5284 1.92833 53.64 2.42 53.64 3.03C53.64 3.88 53.385 4.53833 52.875 5.005C52.3684 5.47167 51.6334 5.705 50.67 5.705C50.46 5.705 50.2884 5.70333 50.155 5.7C50.025 5.69667 49.9167 5.695 49.83 5.695V8H48.26ZM49.83 4.525C49.9567 4.54167 50.0867 4.55333 50.22 4.56C50.3567 4.56667 50.4967 4.57 50.64 4.57C50.9067 4.57 51.15 4.525 51.37 4.435C51.5934 4.345 51.77 4.18833 51.9 3.965C52.0334 3.74167 52.1 3.42833 52.1 3.025C52.1 2.55167 51.9767 2.19 51.73 1.94C51.4834 1.69 51.1117 1.57333 50.615 1.59C50.4884 1.59333 50.355 1.6 50.215 1.61C50.075 1.62 49.9467 1.63667 49.83 1.66V4.525ZM56.2635 8V1.77H54.1485V0.57H59.9535V1.77H57.8385V8H56.2635Z" fill="white"/>
</svg>
