<svg width="39" height="10" viewBox="0 0 39 10" fill="none" xmlns="http://www.w3.org/2000/svg">
<path d="M0.988191 8V0.57H2.43819L5.22319 4.965L6.19319 6.9H5.84819L5.62319 4.405V0.57H7.05319V8H5.50319L2.84319 3.74L1.72819 1.54H2.14819L2.40819 4.245V8H0.988191ZM11.7176 8.08C11.0042 8.09333 10.3909 7.94167 9.87757 7.625C9.36423 7.305 8.97423 6.855 8.70757 6.275C8.4409 5.69167 8.31423 5.01333 8.32757 4.24C8.34423 3.38333 8.50757 2.68167 8.81757 2.135C9.12757 1.585 9.5459 1.17667 10.0726 0.909999C10.5992 0.643333 11.1959 0.503333 11.8626 0.49C12.5459 0.476666 13.1359 0.625 13.6326 0.934999C14.1326 1.24167 14.5142 1.68167 14.7776 2.255C15.0442 2.825 15.1692 3.49833 15.1526 4.275C15.1359 5.13167 14.9792 5.84 14.6826 6.4C14.3859 6.95667 13.9826 7.37333 13.4726 7.65C12.9626 7.92333 12.3776 8.06667 11.7176 8.08ZM11.7476 6.93C12.3042 6.93 12.7459 6.71167 13.0726 6.275C13.3992 5.83833 13.5626 5.155 13.5626 4.225C13.5626 3.73833 13.4976 3.30167 13.3676 2.915C13.2409 2.52833 13.0492 2.22333 12.7926 2C12.5359 1.77333 12.2142 1.66 11.8276 1.66C11.4809 1.66 11.1626 1.74667 10.8726 1.92C10.5859 2.09333 10.3559 2.37333 10.1826 2.76C10.0092 3.14667 9.92257 3.66 9.92257 4.3C9.92257 4.79 9.9909 5.23333 10.1276 5.63C10.2642 6.02667 10.4676 6.34333 10.7376 6.58C11.0076 6.81333 11.3442 6.93 11.7476 6.93ZM16.4276 8V0.57C16.501 0.57 16.5726 0.57 16.6426 0.57C16.716 0.57 16.7876 0.57 16.8576 0.57C16.9276 0.57 16.9976 0.57 17.0676 0.57C17.2076 0.57 17.3843 0.563333 17.5976 0.549999C17.811 0.536666 18.0393 0.523333 18.2826 0.51C18.526 0.496666 18.761 0.49 18.9876 0.49C20.2243 0.49 21.1343 0.805 21.7176 1.435C22.301 2.065 22.5926 2.94833 22.5926 4.085C22.5926 4.93167 22.4443 5.655 22.1476 6.255C21.851 6.85167 21.4243 7.30667 20.8676 7.62C20.3143 7.93333 19.6493 8.08667 18.8726 8.08C18.5526 8.07333 18.231 8.05833 17.9076 8.035C17.5843 8.01167 17.2843 8 17.0076 8C16.9443 8 16.8793 8 16.8126 8C16.7493 8 16.6843 8 16.6176 8C16.5543 8 16.491 8 16.4276 8ZM17.9976 6.835C18.1243 6.86833 18.2793 6.89167 18.4626 6.905C18.646 6.91833 18.8276 6.92333 19.0076 6.92C19.3976 6.91667 19.7393 6.82167 20.0326 6.635C20.326 6.44833 20.5543 6.16 20.7176 5.77C20.8843 5.37667 20.9676 4.87 20.9676 4.25C20.9676 3.60333 20.8893 3.08833 20.7326 2.705C20.576 2.32167 20.341 2.04667 20.0276 1.88C19.7143 1.71 19.321 1.625 18.8476 1.625C18.6943 1.625 18.5393 1.63167 18.3826 1.645C18.226 1.65833 18.0976 1.675 17.9976 1.695V6.835ZM23.8398 8V0.57H28.3748V1.75H25.3998V3.615H27.6548V4.77H25.3998V6.795H28.6898V8H23.8398ZM29.2594 9.62L28.8844 8.825C29.1311 8.72833 29.3744 8.58167 29.6144 8.385C29.8544 8.19167 30.0261 7.90833 30.1294 7.535C30.2061 7.26167 30.2511 6.92167 30.2644 6.515C30.2811 6.10833 30.2894 5.61333 30.2894 5.03V0.57H31.8594V5.01C31.8594 5.49333 31.8611 5.95 31.8644 6.38C31.8711 6.81 31.8394 7.20167 31.7694 7.555C31.7061 7.89833 31.5794 8.19833 31.3894 8.455C31.2028 8.71167 30.9828 8.925 30.7294 9.095C30.4794 9.265 30.2244 9.39333 29.9644 9.48C29.7044 9.56667 29.4694 9.61333 29.2594 9.62ZM35.6592 8.08C35.3159 8.08 34.9909 8.055 34.6842 8.005C34.3775 7.955 34.1125 7.895 33.8892 7.825C33.6659 7.755 33.5075 7.69167 33.4142 7.635L33.6492 6.395C33.7725 6.46833 33.9342 6.54167 34.1342 6.615C34.3375 6.685 34.5609 6.745 34.8042 6.795C35.0475 6.84167 35.2925 6.865 35.5392 6.865C35.9359 6.865 36.2309 6.80333 36.4242 6.68C36.6175 6.55667 36.7142 6.35833 36.7142 6.085C36.7142 5.89167 36.6609 5.73 36.5542 5.6C36.4475 5.46667 36.2792 5.33667 36.0492 5.21C35.8225 5.08333 35.5275 4.93333 35.1642 4.76C34.8542 4.61 34.5625 4.43167 34.2892 4.225C34.0159 4.01833 33.7942 3.77167 33.6242 3.485C33.4542 3.19833 33.3692 2.86333 33.3692 2.48C33.3692 2.13333 33.4359 1.835 33.5692 1.585C33.7059 1.33167 33.8925 1.125 34.1292 0.965C34.3659 0.801666 34.6392 0.681666 34.9492 0.605C35.2625 0.528333 35.5975 0.49 35.9542 0.49C36.4675 0.49 36.8892 0.538333 37.2192 0.635C37.5492 0.731666 37.7792 0.821666 37.9092 0.905L37.6442 2.095C37.4875 1.98167 37.2709 1.88 36.9942 1.79C36.7175 1.69667 36.4009 1.65 36.0442 1.65C35.8075 1.65 35.6009 1.67833 35.4242 1.735C35.2509 1.79167 35.1159 1.875 35.0192 1.985C34.9225 2.09167 34.8742 2.22333 34.8742 2.38C34.8742 2.56667 34.9192 2.72667 35.0092 2.86C35.1025 2.99 35.2492 3.11667 35.4492 3.24C35.6492 3.36 35.9092 3.49833 36.2292 3.655C36.5192 3.79167 36.7875 3.935 37.0342 4.085C37.2809 4.23167 37.4975 4.39333 37.6842 4.57C37.8709 4.74667 38.0159 4.94833 38.1192 5.175C38.2225 5.40167 38.2742 5.66167 38.2742 5.955C38.2742 6.40167 38.1692 6.785 37.9592 7.105C37.7492 7.42167 37.4475 7.66333 37.0542 7.83C36.6642 7.99667 36.1992 8.08 35.6592 8.08Z" fill="white"/>
</svg>
