<svg width="71" height="9" viewBox="0 0 71 9" fill="none" xmlns="http://www.w3.org/2000/svg">
<path d="M2.37155 8H0.80655V0.57C0.873217 0.57 0.938217 0.57 1.00155 0.57C1.06822 0.57 1.13322 0.57 1.19655 0.57C1.26322 0.57 1.32988 0.57 1.39655 0.57C1.64988 0.57 1.94488 0.556666 2.28155 0.53C2.61822 0.503333 3.02155 0.49 3.49155 0.49C3.83822 0.49 4.17155 0.528333 4.49155 0.605C4.81155 0.678333 5.09655 0.801666 5.34655 0.975C5.59988 1.145 5.79988 1.375 5.94655 1.665C6.09322 1.955 6.16655 2.315 6.16655 2.745C6.16655 3.22833 6.08655 3.63 5.92655 3.95C5.76655 4.26667 5.54155 4.515 5.25155 4.695C4.96488 4.87167 4.62822 4.99 4.24155 5.05C4.10822 5.07 3.97322 5.09 3.83655 5.11C3.69988 5.12667 3.51988 5.14167 3.29655 5.155C3.07322 5.165 2.76488 5.17 2.37155 5.17V8ZM2.37155 4.07C2.44155 4.08 2.53988 4.08833 2.66655 4.095C2.79322 4.10167 2.92155 4.105 3.05155 4.105C3.18488 4.105 3.29155 4.105 3.37155 4.105C3.79488 4.105 4.11155 3.98667 4.32155 3.75C4.53488 3.51 4.64155 3.18833 4.64155 2.785C4.64155 2.55833 4.60155 2.35667 4.52155 2.18C4.44488 2 4.30822 1.86 4.11155 1.76C3.91488 1.65667 3.63988 1.605 3.28655 1.605C3.12988 1.605 2.97155 1.61333 2.81155 1.63C2.65155 1.64333 2.50488 1.665 2.37155 1.695V4.07ZM4.94155 8C4.89822 7.94333 4.85988 7.88 4.82655 7.81C4.79655 7.73667 4.74488 7.62 4.67155 7.46C4.56822 7.23667 4.47155 6.995 4.38155 6.735C4.29488 6.475 4.20322 6.22667 4.10655 5.99C4.00988 5.75333 3.89822 5.55667 3.77155 5.4C3.64488 5.24333 3.49155 5.15833 3.31155 5.145L3.75155 4.8L4.72655 4.735C4.91655 4.81833 5.08322 4.96167 5.22655 5.165C5.37322 5.365 5.50655 5.59667 5.62655 5.86C5.74988 6.12333 5.86988 6.395 5.98655 6.675C6.10655 6.955 6.23488 7.215 6.37155 7.455C6.42155 7.54833 6.47155 7.64 6.52155 7.73C6.57488 7.82 6.62655 7.91 6.67655 8H4.94155ZM7.74991 8V0.57H12.2849V1.75H9.30991V3.615H11.5649V4.77H9.30991V6.795H12.5999V8H7.74991ZM14.5946 8H12.9496L15.6396 0.505H17.3296L20.0146 8H18.3446L16.6996 2.74L16.4696 1.88L16.2346 2.74L14.5946 8ZM14.4746 6.425L14.6796 5.31H18.0896L18.2946 6.425H14.4746ZM20.1772 4.305C20.1772 3.68167 20.2722 3.13333 20.4622 2.66C20.6522 2.18333 20.9155 1.785 21.2522 1.465C21.5888 1.14167 21.9772 0.898333 22.4172 0.735C22.8605 0.571666 23.3338 0.49 23.8372 0.49C24.1938 0.49 24.4922 0.509999 24.7322 0.549999C24.9755 0.586666 25.1788 0.628333 25.3422 0.675C25.5088 0.718333 25.6572 0.753333 25.7872 0.779999L25.5772 2.14C25.5138 2.1 25.4172 2.04833 25.2872 1.985C25.1605 1.91833 24.9872 1.86 24.7672 1.81C24.5505 1.75667 24.2788 1.73 23.9522 1.73C23.5288 1.73 23.1538 1.82833 22.8272 2.025C22.5005 2.22167 22.2438 2.505 22.0572 2.875C21.8705 3.245 21.7772 3.69167 21.7772 4.215C21.7772 4.73833 21.8622 5.19833 22.0322 5.595C22.2055 5.99167 22.4588 6.30333 22.7922 6.53C23.1255 6.75333 23.5322 6.865 24.0122 6.865C24.2355 6.865 24.4622 6.84 24.6922 6.79C24.9222 6.74 25.1272 6.68 25.3072 6.61C25.4872 6.53667 25.6205 6.465 25.7072 6.395V7.69C25.5738 7.74333 25.4205 7.8 25.2472 7.86C25.0738 7.92 24.8738 7.97167 24.6472 8.015C24.4238 8.05833 24.1638 8.08 23.8672 8.08C23.0938 8.08 22.4322 7.925 21.8822 7.615C21.3322 7.30167 20.9105 6.86167 20.6172 6.295C20.3238 5.72833 20.1772 5.065 20.1772 4.305ZM28.478 8V1.77H26.363V0.57H32.168V1.77H30.053V8H28.478ZM34.9862 8V0.57H36.4362L39.2212 4.965L40.1912 6.9H39.8462L39.6212 4.405V0.57H41.0512V8H39.5012L36.8412 3.74L35.7262 1.54H36.1462L36.4062 4.245V8H34.9862ZM43.5106 8H41.8656L44.5556 0.505H46.2456L48.9306 8H47.2606L45.6156 2.74L45.3856 1.88L45.1506 2.74L43.5106 8ZM43.3906 6.425L43.5956 5.31H47.0056L47.2106 6.425H43.3906ZM50.6557 8V1.77H48.5407V0.57H54.3457V1.77H52.2307V8H50.6557ZM55.4869 8V0.57H57.0669V8H55.4869ZM60.7534 8.035L58.0184 0.57H59.6834L61.0884 4.785L61.4484 6.13L61.8084 4.785L63.1384 0.57H64.7934L62.0984 8.035H60.7534ZM65.6308 8V0.57H70.1658V1.75H67.1908V3.615H69.4458V4.77H67.1908V6.795H70.4808V8H65.6308Z" fill="white"/>
</svg>
