<svg width="42" height="10" viewBox="0 0 42 10" fill="none" xmlns="http://www.w3.org/2000/svg">
<path d="M1.89902 8H0.334016V0.57C0.400683 0.57 0.465683 0.57 0.529016 0.57C0.595683 0.57 0.660683 0.57 0.724016 0.57C0.790683 0.57 0.857349 0.57 0.924016 0.57C1.17735 0.57 1.47235 0.556666 1.80902 0.53C2.14568 0.503333 2.54902 0.49 3.01902 0.49C3.36568 0.49 3.69902 0.528333 4.01902 0.605C4.33902 0.678333 4.62402 0.801666 4.87402 0.975C5.12735 1.145 5.32735 1.375 5.47402 1.665C5.62068 1.955 5.69402 2.315 5.69402 2.745C5.69402 3.22833 5.61402 3.63 5.45402 3.95C5.29402 4.26667 5.06902 4.515 4.77902 4.695C4.49235 4.87167 4.15568 4.99 3.76902 5.05C3.63568 5.07 3.50068 5.09 3.36402 5.11C3.22735 5.12667 3.04735 5.14167 2.82402 5.155C2.60068 5.165 2.29235 5.17 1.89902 5.17V8ZM1.89902 4.07C1.96902 4.08 2.06735 4.08833 2.19402 4.095C2.32068 4.10167 2.44902 4.105 2.57902 4.105C2.71235 4.105 2.81902 4.105 2.89902 4.105C3.32235 4.105 3.63902 3.98667 3.84902 3.75C4.06235 3.51 4.16902 3.18833 4.16902 2.785C4.16902 2.55833 4.12902 2.35667 4.04902 2.18C3.97235 2 3.83568 1.86 3.63902 1.76C3.44235 1.65667 3.16735 1.605 2.81402 1.605C2.65735 1.605 2.49902 1.61333 2.33902 1.63C2.17902 1.64333 2.03235 1.665 1.89902 1.695V4.07ZM4.46902 8C4.42568 7.94333 4.38735 7.88 4.35402 7.81C4.32402 7.73667 4.27235 7.62 4.19902 7.46C4.09568 7.23667 3.99902 6.995 3.90902 6.735C3.82235 6.475 3.73068 6.22667 3.63402 5.99C3.53735 5.75333 3.42568 5.55667 3.29902 5.4C3.17235 5.24333 3.01902 5.15833 2.83902 5.145L3.27902 4.8L4.25402 4.735C4.44402 4.81833 4.61068 4.96167 4.75402 5.165C4.90068 5.365 5.03402 5.59667 5.15402 5.86C5.27735 6.12333 5.39735 6.395 5.51402 6.675C5.63402 6.955 5.76235 7.215 5.89902 7.455C5.94902 7.54833 5.99902 7.64 6.04902 7.73C6.10235 7.82 6.15402 7.91 6.20402 8H4.46902ZM7.27738 8V0.57H11.8124V1.75H8.83738V3.615H11.0924V4.77H8.83738V6.795H12.1274V8H7.27738ZM14.1221 8H12.4771L15.1671 0.505H16.8571L19.5421 8H17.8721L16.2271 2.74L15.9971 1.88L15.7621 2.74L14.1221 8ZM14.0021 6.425L14.2071 5.31H17.6171L17.8221 6.425H14.0021ZM19.7046 4.305C19.7046 3.68167 19.7996 3.13333 19.9896 2.66C20.1796 2.18333 20.443 1.785 20.7796 1.465C21.1163 1.14167 21.5046 0.898333 21.9446 0.735C22.388 0.571666 22.8613 0.49 23.3646 0.49C23.7213 0.49 24.0196 0.509999 24.2596 0.549999C24.503 0.586666 24.7063 0.628333 24.8696 0.675C25.0363 0.718333 25.1846 0.753333 25.3146 0.779999L25.1046 2.14C25.0413 2.1 24.9446 2.04833 24.8146 1.985C24.688 1.91833 24.5146 1.86 24.2946 1.81C24.078 1.75667 23.8063 1.73 23.4796 1.73C23.0563 1.73 22.6813 1.82833 22.3546 2.025C22.028 2.22167 21.7713 2.505 21.5846 2.875C21.398 3.245 21.3046 3.69167 21.3046 4.215C21.3046 4.73833 21.3896 5.19833 21.5596 5.595C21.733 5.99167 21.9863 6.30333 22.3196 6.53C22.653 6.75333 23.0596 6.865 23.5396 6.865C23.763 6.865 23.9896 6.84 24.2196 6.79C24.4496 6.74 24.6546 6.68 24.8346 6.61C25.0146 6.53667 25.148 6.465 25.2346 6.395V7.69C25.1013 7.74333 24.948 7.8 24.7746 7.86C24.6013 7.92 24.4013 7.97167 24.1746 8.015C23.9513 8.05833 23.6913 8.08 23.3946 8.08C22.6213 8.08 21.9596 7.925 21.4096 7.615C20.8596 7.30167 20.438 6.86167 20.1446 6.295C19.8513 5.72833 19.7046 5.065 19.7046 4.305ZM28.0054 8V1.77H25.8904V0.57H31.6954V1.77H29.5804V8H28.0054ZM32.0916 9.62L31.7166 8.825C31.9633 8.72833 32.2066 8.58167 32.4466 8.385C32.6866 8.19167 32.8583 7.90833 32.9616 7.535C33.0383 7.26167 33.0833 6.92167 33.0966 6.515C33.1133 6.10833 33.1216 5.61333 33.1216 5.03V0.57H34.6916V5.01C34.6916 5.49333 34.6933 5.95 34.6966 6.38C34.7033 6.81 34.6716 7.20167 34.6016 7.555C34.5383 7.89833 34.4116 8.19833 34.2216 8.455C34.0349 8.71167 33.8149 8.925 33.5616 9.095C33.3116 9.265 33.0566 9.39333 32.7966 9.48C32.5366 9.56667 32.3016 9.61333 32.0916 9.62ZM38.4914 8.08C38.148 8.08 37.823 8.055 37.5164 8.005C37.2097 7.955 36.9447 7.895 36.7214 7.825C36.498 7.755 36.3397 7.69167 36.2464 7.635L36.4814 6.395C36.6047 6.46833 36.7664 6.54167 36.9664 6.615C37.1697 6.685 37.393 6.745 37.6364 6.795C37.8797 6.84167 38.1247 6.865 38.3714 6.865C38.768 6.865 39.063 6.80333 39.2564 6.68C39.4497 6.55667 39.5464 6.35833 39.5464 6.085C39.5464 5.89167 39.493 5.73 39.3864 5.6C39.2797 5.46667 39.1114 5.33667 38.8814 5.21C38.6547 5.08333 38.3597 4.93333 37.9964 4.76C37.6864 4.61 37.3947 4.43167 37.1214 4.225C36.848 4.01833 36.6264 3.77167 36.4564 3.485C36.2864 3.19833 36.2014 2.86333 36.2014 2.48C36.2014 2.13333 36.268 1.835 36.4014 1.585C36.538 1.33167 36.7247 1.125 36.9614 0.965C37.198 0.801666 37.4714 0.681666 37.7814 0.605C38.0947 0.528333 38.4297 0.49 38.7864 0.49C39.2997 0.49 39.7214 0.538333 40.0514 0.635C40.3814 0.731666 40.6114 0.821666 40.7414 0.905L40.4764 2.095C40.3197 1.98167 40.103 1.88 39.8264 1.79C39.5497 1.69667 39.233 1.65 38.8764 1.65C38.6397 1.65 38.433 1.67833 38.2564 1.735C38.083 1.79167 37.948 1.875 37.8514 1.985C37.7547 2.09167 37.7064 2.22333 37.7064 2.38C37.7064 2.56667 37.7514 2.72667 37.8414 2.86C37.9347 2.99 38.0814 3.11667 38.2814 3.24C38.4814 3.36 38.7414 3.49833 39.0614 3.655C39.3514 3.79167 39.6197 3.935 39.8664 4.085C40.113 4.23167 40.3297 4.39333 40.5164 4.57C40.703 4.74667 40.848 4.94833 40.9514 5.175C41.0547 5.40167 41.1064 5.66167 41.1064 5.955C41.1064 6.40167 41.0014 6.785 40.7914 7.105C40.5814 7.42167 40.2797 7.66333 39.8864 7.83C39.4964 7.99667 39.0314 8.08 38.4914 8.08Z" fill="white"/>
</svg>
