<svg width="51" height="18" viewBox="0 0 51 18" fill="none" xmlns="http://www.w3.org/2000/svg">
<path d="M4.90986 17.16C4.22319 17.16 3.57319 17.11 2.95986 17.01C2.34653 16.91 1.81653 16.79 1.36986 16.65C0.923192 16.51 0.606525 16.3833 0.419858 16.27L0.889858 13.79C1.13653 13.9367 1.45986 14.0833 1.85986 14.23C2.26653 14.37 2.71319 14.49 3.19986 14.59C3.68653 14.6833 4.17653 14.73 4.66986 14.73C5.46319 14.73 6.05319 14.6067 6.43986 14.36C6.82653 14.1133 7.01986 13.7167 7.01986 13.17C7.01986 12.7833 6.91319 12.46 6.69986 12.2C6.48653 11.9333 6.14986 11.6733 5.68986 11.42C5.23653 11.1667 4.64653 10.8667 3.91986 10.52C3.29986 10.22 2.71653 9.86333 2.16986 9.45C1.62319 9.03667 1.17986 8.54333 0.839859 7.97C0.499858 7.39667 0.329858 6.72667 0.329858 5.96C0.329858 5.26667 0.463192 4.67 0.729858 4.17C1.00319 3.66333 1.37653 3.25 1.84986 2.93C2.32319 2.60333 2.86986 2.36333 3.48986 2.21C4.11653 2.05667 4.78653 1.98 5.49986 1.98C6.52653 1.98 7.36986 2.07667 8.02986 2.27C8.68986 2.46333 9.14986 2.64333 9.40986 2.81L8.87986 5.19C8.56653 4.96333 8.13319 4.76 7.57986 4.58C7.02653 4.39333 6.39319 4.3 5.67986 4.3C5.20653 4.3 4.79319 4.35667 4.43986 4.47C4.09319 4.58333 3.82319 4.75 3.62986 4.97C3.43653 5.18333 3.33986 5.44667 3.33986 5.76C3.33986 6.13333 3.42986 6.45333 3.60986 6.72C3.79653 6.98 4.08986 7.23333 4.48986 7.48C4.88986 7.72 5.40986 7.99667 6.04986 8.31C6.62986 8.58333 7.16653 8.87 7.65986 9.17C8.15319 9.46333 8.58653 9.78667 8.95986 10.14C9.33319 10.4933 9.62319 10.8967 9.82986 11.35C10.0365 11.8033 10.1399 12.3233 10.1399 12.91C10.1399 13.8033 9.92986 14.57 9.50986 15.21C9.08986 15.8433 8.48653 16.3267 7.69986 16.66C6.91986 16.9933 5.98986 17.16 4.90986 17.16ZM22.6891 5.86L15.2691 13.74L15.4091 13.09L15.4491 15.02V17H12.4591V10.38V0.779999H15.4491V7.93L15.3291 11.31L14.8591 10.86L19.1791 5.86H22.6891ZM16.4391 11.99L18.4591 9.92L23.0391 17H19.6291L16.4391 11.99ZM24.5803 17V5.87H27.6303V17H24.5803ZM25.9503 4.26C25.457 4.26 25.0403 4.10667 24.7003 3.8C24.3603 3.49333 24.1903 3.09333 24.1903 2.6C24.1903 2.26667 24.2803 1.96333 24.4603 1.69C24.647 1.41 24.887 1.18667 25.1803 1.02C25.4803 0.853333 25.8003 0.77 26.1403 0.77C26.687 0.77 27.1137 0.926666 27.4203 1.24C27.7337 1.54667 27.8903 1.94333 27.8903 2.43C27.8903 2.93667 27.697 3.37 27.3103 3.73C26.9303 4.08333 26.477 4.26 25.9503 4.26ZM30.7894 17V0.749999H33.8494V17H30.7894ZM36.9222 17V0.749999H39.9822V17H36.9222ZM42.455 16.29L42.795 14.14C42.9017 14.2267 43.1183 14.34 43.445 14.48C43.7717 14.62 44.1617 14.75 44.615 14.87C45.0683 14.9833 45.535 15.04 46.015 15.04C46.6217 15.0467 47.0683 14.9667 47.355 14.8C47.6417 14.6267 47.785 14.37 47.785 14.03C47.785 13.7967 47.6883 13.5933 47.495 13.42C47.3083 13.2467 47.0517 13.0867 46.725 12.94C46.3983 12.7867 46.035 12.63 45.635 12.47C44.915 12.1833 44.3183 11.87 43.845 11.53C43.3783 11.19 43.0283 10.8033 42.795 10.37C42.5683 9.93 42.4583 9.41667 42.465 8.83C42.4717 8.13667 42.6717 7.56 43.065 7.1C43.465 6.64 43.995 6.29667 44.655 6.07C45.3217 5.83667 46.0583 5.72 46.865 5.72C47.685 5.72 48.3817 5.79667 48.955 5.95C49.535 6.09667 49.9317 6.23333 50.145 6.36L49.815 8.55C49.6883 8.44333 49.4883 8.33 49.215 8.21C48.9417 8.09 48.6317 7.99333 48.285 7.92C47.945 7.84 47.5983 7.8 47.245 7.8C46.5983 7.8 46.125 7.88 45.825 8.04C45.5317 8.19333 45.385 8.41667 45.385 8.71C45.3783 9.09 45.525 9.37333 45.825 9.56C46.1317 9.74 46.555 9.94333 47.095 10.17C47.895 10.4967 48.565 10.8233 49.105 11.15C49.6517 11.47 50.0617 11.84 50.335 12.26C50.615 12.6733 50.755 13.18 50.755 13.78C50.755 14.8867 50.3583 15.7267 49.565 16.3C48.7717 16.8733 47.7017 17.16 46.355 17.16C45.7883 17.16 45.2417 17.1133 44.715 17.02C44.195 16.9333 43.735 16.8233 43.335 16.69C42.9417 16.5567 42.6483 16.4233 42.455 16.29Z" fill="#837E9F"/>
</svg>
